<svg width="73" height="117" viewBox="0 0 73 117" fill="none" xmlns="http://www.w3.org/2000/svg">
<path d="M11.1836 41C10.3836 41 9.98359 40.8 9.98359 40.4C9.98359 39.8667 10.1836 39.4 10.5836 39C11.1169 38.4667 11.6503 38.2 12.1836 38.2C17.1169 38.2 23.9169 35.4667 32.5836 30C41.2503 24.5333 48.6503 19.0667 54.7836 13.6C61.0503 8.13333 64.6503 4.6 65.5836 2.99999C66.5169 1.93332 67.8503 1.19999 69.5836 0.799997C71.3169 0.799997 72.1836 1.46666 72.1836 2.8C72.1836 3.33333 71.7836 4.39999 70.9836 5.99999C67.7836 11.3333 61.4503 22.0667 51.9836 38.2C30.1169 75.5333 14.5169 100.6 5.18359 113.4C3.71693 115.133 2.58359 116 1.78359 116C1.65026 116.133 1.58359 116.2 1.58359 116.2C0.916927 116.2 0.583594 116 0.583594 115.6C0.583594 115.067 0.983594 114.2 1.78359 113C2.58359 111.8 3.51693 110.467 4.58359 109C5.65026 107.667 14.5836 92.2667 31.3836 62.8C48.3169 33.2 58.1169 16.2 60.7836 11.8C53.5836 18.2 45.0503 24.6667 35.1836 31.2C25.4503 37.7333 17.4503 41 11.1836 41Z" fill="black"/>
</svg>
