<svg width="100" height="114" viewBox="0 0 100 114" fill="none" xmlns="http://www.w3.org/2000/svg">
<path d="M65.257 46.2C68.5904 45.2667 71.5904 44.8 74.257 44.8C80.7904 44.8 84.057 47.4667 84.057 52.8C84.057 57.3333 81.7237 63 77.057 69.8C72.3904 76.6 66.457 83.2667 59.257 89.8C52.1904 96.2 43.7904 101.733 34.057 106.4C24.3237 110.933 14.9904 113.2 6.05703 113.2C2.05703 113.2 0.0570304 112 0.0570304 109.6C0.0570304 105.467 4.7237 99.8667 14.057 92.8C23.257 85.6 30.457 82 35.657 82C36.857 82 37.457 82.7333 37.457 84.2C37.457 85.5333 36.457 87 34.457 88.6C32.457 90.2 31.1237 91 30.457 91C29.9237 91 29.657 90.7333 29.657 90.2C29.657 89.9333 30.257 89.5333 31.457 89C32.657 88.4667 33.257 88 33.257 87.6C33.257 87.2 32.7904 87 31.857 87C29.3237 87 23.9237 90.2667 15.657 96.8C7.39036 103.2 3.25703 107.667 3.25703 110.2C3.25703 111.133 3.99036 111.6 5.45703 111.6C13.1904 111.6 21.5904 109.133 30.657 104.2C39.857 99.2667 47.9237 93.4667 54.857 86.8C61.7904 80.1333 67.5904 73.4667 72.257 66.8C76.9237 60.1333 79.257 55.1333 79.257 51.8C79.257 48.4667 77.657 46.8 74.457 46.8C66.3237 46.8 58.457 49.3333 50.857 54.4L49.057 55.6C48.657 56 48.3237 56.2 48.057 56.2C47.7904 56.2 47.657 55.8667 47.657 55.2C47.657 54.2667 49.657 52.6 53.657 50.2L55.657 49C65.1237 43.5333 73.9237 36.4 82.057 27.6C90.1904 18.8 94.257 12 94.257 7.2C94.257 4.13333 92.1904 2.6 88.057 2.6C81.3904 2.6 73.657 5.53333 64.857 11.4C56.057 17.2667 48.7904 23.2 43.057 29.2C42.257 30 41.3904 30.4 40.457 30.4C39.657 30.4 39.257 30.2667 39.257 30C39.257 29.6 39.3237 29.3333 39.457 29.2C58.1237 10.1333 74.7904 0.6 89.457 0.6C96.257 0.6 99.657 3.13333 99.657 8.2C99.657 13.2667 96.5237 19.4 90.257 26.6C84.1237 33.6667 75.7904 40.2 65.257 46.2Z" fill="black"/>
</svg>
