<svg width="111" height="114" viewBox="0 0 111 114" fill="none" xmlns="http://www.w3.org/2000/svg">
<path d="M24.4117 93.2C18.2784 96.2667 13.2784 99.4667 9.41172 102.8C5.41172 106.133 3.41172 108.267 3.41172 109.2C3.41172 110.133 3.67838 110.6 4.21172 110.6C14.7451 106.467 26.9451 99.1333 40.8117 88.6C36.0117 88.6 30.5451 90.1333 24.4117 93.2ZM53.8117 84C53.4117 84.2667 52.8784 84.6667 52.2117 85.2C51.6784 85.7333 51.3451 86 51.2117 86C52.9451 86.8 57.0784 89.6667 63.6117 94.6C70.2784 99.4 75.6117 101.8 79.6117 101.8C83.7451 101.8 88.0784 101 92.6117 99.4C97.2784 97.8 101.012 96.2 103.812 94.6L107.812 92.2C108.345 91.9333 108.878 91.8 109.412 91.8C110.078 91.8 110.412 92 110.412 92.4C110.412 92.8 110.012 93.3333 109.212 94C108.412 94.6667 107.012 95.6667 105.012 97C103.012 98.2 99.0784 99.9333 93.2117 102.2C87.3451 104.333 82.0117 105.4 77.2117 105.4C72.4117 105.4 68.0784 104.4 64.2117 102.4C60.3451 100.4 56.6784 98 53.2117 95.2C49.7451 92.4 47.1451 90.6 45.4117 89.8C21.5451 105.667 7.27838 113.6 2.61172 113.6C1.41172 113.6 0.811717 112.8 0.811717 111.2C0.811717 109.6 2.94505 106.667 7.21172 102.4C11.4784 98 17.3451 93.8667 24.8117 90C32.1451 86.1333 39.2784 84.2 46.2117 84.2H46.6117C62.7451 71.4 76.5451 57.9333 88.0117 43.8C99.4784 29.6667 105.212 17.8 105.212 8.19999C105.212 6.06666 104.812 4.66666 104.012 4C103.345 3.19999 102.012 2.79999 100.012 2.79999C92.6784 2.79999 84.7451 5.99999 76.2117 12.4C67.6784 18.8 60.8117 25.6 55.6117 32.8C50.4117 40 47.8117 45.4 47.8117 49C47.8117 50.7333 48.6117 51.6 50.2117 51.6C54.4784 51.6 59.6784 49.6 65.8117 45.6C72.0784 41.4667 77.2784 37.3333 81.4117 33.2L87.4117 27.2C87.9451 26.6667 88.5451 26.4 89.2117 26.4C90.0117 26.4 90.4117 26.8 90.4117 27.6C90.4117 27.8667 90.2784 28.2667 90.0117 28.8C86.8117 32.2667 82.6117 36.2 77.4117 40.6C66.6117 49.6667 57.0784 54.2 48.8117 54.2C44.8117 54.2 42.8117 52.1333 42.8117 48C42.8117 44.4 44.4117 39.9333 47.6117 34.6C50.8117 29.2667 54.9451 24.0667 60.0117 19C65.0784 13.9333 71.2117 9.6 78.4117 6C85.7451 2.26667 92.9451 0.399999 100.012 0.399999C103.345 0.399999 105.878 1.26667 107.612 3C109.478 4.6 110.412 7.79999 110.412 12.6C110.412 20.7333 104.812 31.9333 93.6117 46.2C82.5451 60.3333 69.2784 72.9333 53.8117 84Z" fill="black"/>
</svg>
